<svg xmlns="http://www.w3.org/2000/svg" width="43" height="43" fill="none"><path fill="#F7F6F3" d="m39.417 6.11-.215-2.258-2.15.717a24.797 24.797 0 0 1-11.485 1.146A21.267 21.267 0 0 0 13.6 7.328a12.954 12.954 0 0 0-7.686 9.693c-.482 2.75-.24 5.577.698 8.206a29.736 29.736 0 0 1 2.115-3.942 17.646 17.646 0 0 1 7.292-6.145 19.994 19.994 0 0 1 9.066-1.792 21.644 21.644 0 0 0-8.35 3.135 16.983 16.983 0 0 0-3.332 2.742 20.384 20.384 0 0 0-2.49 3.422 29.366 29.366 0 0 0-2.814 8.134 47.337 47.337 0 0 0-.931 8.636h3.583a54.987 54.987 0 0 1 1.057-7.74 16.573 16.573 0 0 0 8.098 1.988 19.709 19.709 0 0 0 7.669-1.558C41.208 26.284 39.417 6.916 39.417 6.11Z"/></svg>